<svg width="318" height="318" viewBox="0 0 318 318" fill="none" xmlns="http://www.w3.org/2000/svg">
<path d="M14 96.7143C14 82.2036 14 74.9482 16.4584 69.225C19.7363 61.5942 26.0236 55.5314 33.937 52.3706C39.8722 50 47.3963 50 62.4444 50H100.282C113.483 50 120.084 50 126.019 52.3706C131.954 54.7412 136.621 59.2418 145.956 68.243L175.481 96.7143V143.429H14V96.7143Z" fill="white" fill-opacity="0.2"/>
<path d="M14 146.542C14 129.101 14 120.38 17.5201 113.718C20.6164 107.858 25.5571 103.094 31.6341 100.108C38.5426 96.7139 47.5865 96.7139 65.6741 96.7139H252.993C271.08 96.7139 280.125 96.7139 287.033 100.108C293.109 103.094 298.051 107.858 301.146 113.718C304.667 120.38 304.667 129.101 304.667 146.542V218.171C304.667 235.613 304.667 244.334 301.146 250.996C298.051 256.855 293.109 261.62 287.033 264.605C280.125 268 271.08 268 252.993 268H65.6741C47.5865 268 38.5426 268 31.6341 264.605C25.5571 261.62 20.6164 256.855 17.5201 250.996C14 244.334 14 235.613 14 218.171V146.542Z" fill="#252729"/>
</svg>
